<svg width="55" height="55" viewBox="0 0 55 55" version="1.1" xmlns="http://www.w3.org/2000/svg" xmlns:xlink="http://www.w3.org/1999/xlink">
<title>expand button</title>
<desc>Created using Figma</desc>
<g id="Canvas" transform="translate(-11676 495)">
<g id="expand button">
<g id="Ellipse">
<mask id="mask0_outline_ins">
<use xlink:href="#path0_fill" fill="white" transform="translate(11676 -495)"/>
</mask>
<g mask="url(#mask0_outline_ins)">
<use xlink:href="#path1_stroke_2x" transform="translate(11676 -495)" fill="#FFFFFF"/>
</g>
</g>
<g id="Polygon">
<use xlink:href="#path2_fill" transform="matrix(0.651635 0.758533 -0.758533 0.651635 11706.3 -490)" fill="#FFFFFF"/>
<mask id="mask1_outline_ins">
<use xlink:href="#path2_fill" fill="white" transform="matrix(0.651635 0.758533 -0.758533 0.651635 11706.3 -490)"/>
</mask>
<g mask="url(#mask1_outline_ins)">
<use xlink:href="#path3_stroke_2x" transform="matrix(0.651635 0.758533 -0.758533 0.651635 11706.3 -490)"/>
</g>
</g>
<g id="Polygon">
<use xlink:href="#path2_fill" transform="matrix(-0.651635 -0.758533 0.758533 -0.651635 11701.5 -446.392)" fill="#FFFFFF"/>
<mask id="mask2_outline_ins">
<use xlink:href="#path2_fill" fill="white" transform="matrix(-0.651635 -0.758533 0.758533 -0.651635 11701.5 -446.392)"/>
</mask>
<g mask="url(#mask2_outline_ins)">
<use xlink:href="#path3_stroke_2x" transform="matrix(-0.651635 -0.758533 0.758533 -0.651635 11701.5 -446.392)"/>
</g>
</g>
</g>
</g>
<defs>
<path id="path0_fill" d="M 55 27.5C 55 42.6878 42.6878 55 27.5 55C 12.3122 55 0 42.6878 0 27.5C 0 12.3122 12.3122 0 27.5 0C 42.6878 0 55 12.3122 55 27.5Z"/>
<path id="path1_stroke_2x" d="M 50 27.5C 50 39.9264 39.9264 50 27.5 50L 27.5 60C 45.4493 60 60 45.4493 60 27.5L 50 27.5ZM 27.5 50C 15.0736 50 5 39.9264 5 27.5L -5 27.5C -5 45.4493 9.55075 60 27.5 60L 27.5 50ZM 5 27.5C 5 15.0736 15.0736 5 27.5 5L 27.5 -5C 9.55075 -5 -5 9.55075 -5 27.5L 5 27.5ZM 27.5 5C 39.9264 5 50 15.0736 50 27.5L 60 27.5C 60 9.55075 45.4493 -5 27.5 -5L 27.5 5Z"/>
<path id="path2_fill" d="M 15 0L 27.9904 15L 2.00962 15L 15 0Z"/>
<path id="path3_stroke_2x" d="M 15 0L 15.7559 -0.654654L 15 -1.52753L 14.2441 -0.654654L 15 0ZM 27.9904 15L 27.9904 16L 30.1793 16L 28.7463 14.3453L 27.9904 15ZM 2.00962 15L 1.25369 14.3453L -0.179282 16L 2.00962 16L 2.00962 15ZM 14.2441 0.654654L 27.2345 15.6547L 28.7463 14.3453L 15.7559 -0.654654L 14.2441 0.654654ZM 27.9904 14L 2.00962 14L 2.00962 16L 27.9904 16L 27.9904 14ZM 2.76555 15.6547L 15.7559 0.654654L 14.2441 -0.654654L 1.25369 14.3453L 2.76555 15.6547Z"/>
</defs>
</svg>
